<?xml version="1.0" encoding="UTF-8"?>
<svg xmlns="http://www.w3.org/2000/svg" version="1.1" viewBox="0 0 88.7 71">
  <defs>
    <style>
      .cls-1 {
        fill-rule: evenodd;
      }

      .cls-1, .cls-2 {
        fill: #455273;
      }

      .cls-2 {
        font-family: Tahoma, Tahoma;
        font-size: 20px;
        stroke: #455273;
        stroke-miterlimit: 10;
        stroke-width: .5px;
      }
    </style>
  </defs>
  <!-- Generator: Adobe Illustrator 28.7.1, SVG Export Plug-In . SVG Version: 1.2.0 Build 142)  -->
  <g>
    <g id="_Слой_1" data-name="Слой_1">
      <path class="cls-1" d="M17.4,17.8c0-.5,0-.6,0-.6,0,0,.1,0,.2,0,0,0,.2,0,.2.4,0,.3,0,.7,0,1.1,0,.4,0,.7,0,.9,0,.2,0,.3,0,.4,0,.1-.3.2-.4.3,0,0,0,0,0-.4s0-1.4,0-1.9ZM20.6,38.3l-1.6,2.4h1.6v-2.4ZM36.7,37.2c0,.3-.2.5-.6,1.3-.7,1.2-1.3,2.4-2,3.6-.8,1.6-1.8,3.4-2.6,4.8-.8,1.5-1.4,2.5-2,3.6-.6,1.1-1.3,2.2-2,3.3-.7,1.1-1.4,2.2-2.1,3.2-.7,1-1.5,2-2.1,2.6-.6.7-1,1.1-1.4,1.4-.4.3-.7.6-1.1.7-.4.1-1,.1-1.5,0-.5-.2-.9-.7-1.5-1.3-.6-.6-1.3-1.4-1.8-2.2-.6-.8-1-1.6-1.5-2.5-.4-.7-.8-1.4-1.4-2.6h-.1c-1.3-.1-2-.2-2.9-.3-.9,0-2-.2-2.6-.2-.6,0-.6,0-.7-.5-.1-.5-.4-1.4-.6-2-.2-.5-.3-.6,0-.7.2,0,.8,0,1.5-.2.7,0,1.4-.2,2.4-.4.4,0,.7-.2,1.1-.2-.2-.6-.4-1.1-.6-1.6-.6-1.5-.9-2.3-1.2-3.3-.3-.9-.6-2-.8-2.9-.2-.8-.3-1.4-.4-2.2-.1-.7-.2-1.5-.2-2.4,0-.9,0-1.8.3-2.6.2-.8.5-1.5.8-2.1.3-.5.6-.8.7-.9q.1-.1.1-2.7c0-2.6,0-7.7,0-10.3,0-2.6,0-2.6,0-2.6,0,0,.2-.2.3-.4.2-.2.5-.4.7-.6.2-.2.3-.4.4-.5,0-.1.1-.3.1-.4,0-.2-.1-.3,0-.5,0-.2.3-.4.7-.7.4-.3,1.1-.7,1.8-1.1.7-.4,1.4-.8,2.3-1.1.8-.4,1.7-.7,2.4-1,.5-.2,1.1-.3,1.6-.5.3,0,.3,0,.3,1.4,0,1.5,0,4.6,0,6.1,0,1.5,0,1.5.1,1.4.2,0,.5-.3.8-.5.3-.2.7-.4,1.2-.6.5-.2,1-.5,1.8-.8.8-.3,1.8-.7,2.8-.9,1-.3,2-.5,2.9-.7.9-.2,1.6-.3,2.1-.4.5,0,.7,0,.9,0,.1,0,.2,0,.2,3.6,0,3.7,0,11,0,14.7,0,3.7,0,3.7,0,3.7.1,0,.4,0,.7,0,.3,0,.7,0,1.1,0s.7,0,.9,0c.3,0,.5.2.7.4.1.2.2.3.2.6,0,.2,0,.5,0,.8ZM11.4,47.1c.2.4.3.9.5,1.3,0,0,.1,0,.2,0-.2-.4-.4-.9-.5-1.3-.7-1.8-1.1-3.3-1.5-4.6-.4-1.3-.6-2.3-.8-3.2-.2-.8-.3-1.6-.3-2.5,0-.7,0-1.3,0-1.9,0-.6.2-1.1.3-1.6.1-.4.3-.7.6-1.1.2-.3.5-.6.6-.8q.1-.2.1-2.8c0-2.5,0-7.7,0-10.3,0-2.3,0-2.5,0-2.6h0c0-.2.2-.3.3-.5,0,0,.2-.2.3-.3,0,0,.1-.1.2-.2.2-.2.5-.4.6-.8,0-.2,0-.5.1-.7,0,0,0-.2,0-.3,0-.2,0-.2.2-.3h0c.2-.2.5-.3.7-.5h.1c.3-.2.6-.4,1-.6.4-.2,1-.5,1.6-.8.6-.3,1.1-.5,1.5-.6.6-.2,1.2-.4,1.3-.4,0,0,0,0,0,0,0,.1,0,.5,0,1.2v.2c0,.8,0,2,0,3.1,0,1.2,0,2.4,0,3.1v.3c0,1.1,0,1.2,0,1.3,0,0,0,0,.1,0s.1,0,.2,0c0,0,.2-.1.3-.2.2-.1.4-.3.6-.4h0c.4-.3.8-.5,1.5-.9.5-.3,1.8-.9,3.4-1.6,1.3-.5,2.8-1,3.9-1.3,1.1-.3,1.8-.3,2.2-.4h.4c0,.2,0,1.1,0,3.4,0,3.5,0,10.7,0,15.1,0,.9,0,1.9,0,2.8,0,0,.2,0,.2,0,0-.8,0-1.7,0-2.8,0-4.4,0-11.6,0-15.1s0-2.6,0-3.1c0-.5,0-.6-.1-.6h-.5c-.4,0-1.2.1-2.3.4-1.1.3-2.6.7-3.9,1.3-1.5.6-2.8,1.2-3.4,1.6-.8.4-1.2.7-1.5.9h0c-.2.2-.4.3-.6.4-.1,0-.2.1-.3.2,0-.2,0-.5,0-1.1v-.3c0-.8,0-2,0-3.1,0-1.2,0-2.4,0-3.1v-.2c0-1.1,0-1.3-.1-1.4,0,0,0,0,0,0,0,0,0,0,0,0,0,0,0,0-.2,0-.1,0-.7.2-1.4.4-.5.2-.9.4-1.6.6-.6.3-1.2.6-1.6.8-.4.2-.7.4-1,.6h-.1c-.2.2-.5.4-.7.5h0c-.2.1-.3.2-.3.4,0,0,0,.2,0,.3,0,.2,0,.4,0,.6-.1.3-.3.5-.5.7,0,0-.2.1-.2.2-.1,0-.2.2-.3.3-.1.1-.3.3-.4.4h0c-.1.2-.1.2-.1,2.8,0,2.6,0,7.8,0,10.3s0,2.5,0,2.6c-.1.1-.4.4-.6.8-.3.4-.5.8-.6,1.2-.2.5-.3,1-.4,1.6,0,.6,0,1.2,0,1.9,0,.8.2,1.7.3,2.5.2.9.4,1.8.8,3.2.4,1.4.8,2.8,1.5,4.7ZM29.5,22.9c0,.3,0,.3-.3.5-.3.2-.8.5-1.1.7-.3.2-.3.3-.3.4,0,.1,0,.3,0,.3,0,0,.2.1.6,0,.4-.2,1.1-.6,1.4-.8.3-.2.3-.3.3-1.7s0-4.1,0-5.5c0-1.4,0-1.4-.2-1.4-.1,0-.4.1-.6.1-.1,0-.1,0-.1.9,0,.8,0,2.5,0,3.3,0,.8,0,.8,0,.9,0,0-.2,0-.2.1-.1,0-.2,0-.3,0,0,0,0,0-.1-.8,0-.8,0-2.4,0-3.3,0-.8,0-.8-.2-.8-.1,0-.3,0-.4.1-.1,0-.1,0-.1.2,0,0,0,.1,0,.9,0,.8,0,2.4,0,3.3s0,1.2,0,1.4c0,.2.2.2.4.2.2,0,.5-.2.6-.3.2-.1.2-.2.3-.2s0,0,0,0c0,0,0,0,0,.4,0,.3,0,.8,0,1.1ZM26.5,19.2c0-1.3,0-1.3.1-1.4.1,0,.4-.3.6-.3.1,0,.2,0,.2-.3,0-.2,0-.6,0-.8s0-.2-.5,0c-.5.2-1.4.7-1.9.9-.5.2-.5.2-.5.5,0,.2,0,.6,0,.8,0,.2,0,.2.2,0,.1,0,.3-.2.5-.3.2,0,.3-.1.4-.1,0,0,0,0,0,1.4,0,1.3,0,3.8,0,5,0,1.2,0,1.2.1,1.2.1,0,.3-.2.4-.3.1,0,0,0,0-1.3,0-1.3,0-3.8,0-5.1ZM22.5,40.9v-.2h-1.6v-3.3l-2.1,3.3h-.8l-4.4,4.9h0v2h.2v-1.8l4.3-4.8h4.5ZM20.2,42.4v1.1h.6v-1.1h-.6ZM18.5,42.4v1.1h.7v-1.1h-.7ZM17.1,43.1v1.1h.4v-1.1h-.4ZM16,44.5v.8h.3v-.8h-.3ZM14.7,45.9v.8h.4v-.8h-.4ZM11.5,23.1c0,1.5,0,1.5.3,1.3.4-.2,1.1-.6,1.4-.8.4-.2.4-.3.4-.4,0-.1-.1-.3-.2-.4,0,0-.2,0-.3,0-.2,0-.4.2-.6.3-.1,0-.2,0-.2-1.1,0-1.1,0-3.4,0-4.6,0-1.2,0-1.2.1-1.3.1,0,.4-.2.6-.3.1,0,.2-.1.2-.2,0-.1,0-.4,0-.5,0-.1,0-.1-.1-.1-.5.3-1,.6-1.3.7-.3.1-.3.1-.3,1.6,0,1.5,0,4.4,0,5.9ZM15.4,15.4c0,.9,0,2.7,0,4s0,1.9,0,2.2c0,.3,0,.3.1.2.1,0,.5-.3.6-.4.2,0,.2,0,.2,0,0,0,0,0,0-1.4,0-1.3,0-4,0-5.4,0-1.3,0-1.4-.2-1.4-.1,0-.4,0-.8.2-.4.2-1,.7-1.3.9-.3.2-.3.2-.3,1.6,0,1.4,0,4.2,0,5.6,0,1.4,0,1.4.2,1.3.1,0,.4-.3.6-.4.1-.1.2-.1.2-1.4,0-1.2,0-3.7,0-4.9s0-1.3.1-1.4c.1,0,.3-.2.4-.3.1,0,.1,0,.1.9ZM17.2,16c0-.2,0-.3.2-.5.2-.1.5-.2.7-.4.2-.2.3-.6,0-.6-.2,0-.7.3-1,.5-.3.2-.3.3-.3,1.3,0,1,0,2.5,0,3.7,0,1,0,1,.1.9,0,0,0,0,0,0,.3-.1.7-.3.9-.5.3-.2.4-.3.4-.9,0-.6,0-1.6-.1-2.2,0-.6-.2-.7-.4-.7-.1,0-.3,0-.4,0-.1,0-.2,0-.3,0,0-.1,0-.3,0-.5ZM18.5,22.1c.2,0,.5-.3.6-.4.2-.1.1-.1.1-.3,0-.2,0-.5,0-.6,0-.2,0-.3-.3-.2-.3.1-.8.4-1.1.6-.3.2-.3.2-.3,1.5,0,1.3,0,4,0,5.4s0,1.4.1,1.3c.1,0,.4-.2.5-.3.1,0,.1,0,.1-1.2,0-1.1,0-3.4,0-4.6,0-1.1,0-1.1.2-1.2ZM23,22.7c.2-.6.3-.6.3-.6,0,0,0,0,0,.9s0,2.4,0,3.3c0,.8,0,.8.2.7.1,0,.4-.2.5-.3.1,0,.1,0,.1-1.5v-5.9c0-1.5,0-1.5,0-1.5,0,0-.2,0-.3,0-.1,0-.2.2-.5,1.1-.3.9-.8,2.7-1,3.6-.2.9-.3.9-.3.9,0,0,0,0-.3-.6-.2-.6-.7-1.8-.9-2.4-.2-.6-.2-.6-.3-.5-.1,0-.3.2-.5.3-.1,0-.2.1-.2,1.6,0,1.4,0,4.3,0,5.7s0,1.4.1,1.4c.1,0,.4-.2.5-.3.1,0,.1,0,.1-1,0-.9,0-2.8,0-3.8,0-.9,0-1,0-1,0,0,0,0,.3.5.2.5.7,1.6.9,2.1q.2.5.4,0c.2-.6.6-1.9.8-2.5ZM26.7,53.1c-.1,0-.2,0-.3.1-.2.3-.4.6-.6.9-.9,1.4-1.6,2.4-2.3,3.4-.6.8-1.2,1.4-1.7,1.9-.4.4-.8.7-1.1.9-.3.2-.5.2-.8.1-.2,0-.5-.2-1.2-1-.6-.6-1.6-1.8-2.3-3-.7-.9-1.2-1.9-1.9-3.3h-.3c.8,1.5,1.3,2.5,2,3.4.8,1.2,1.8,2.3,2.4,3,.7.7,1,.9,1.3,1,0,0,.2,0,.3,0,.2,0,.4,0,.6-.2.3-.2.7-.5,1.2-.9.5-.5,1.1-1.2,1.7-2,.7-1,1.5-2,2.3-3.4.2-.4.5-.8.7-1.2ZM31,45.9c0,0,0,0-.2,0-.1.2-.4.5-.8,1.1-.4.6-1,1.4-1.4,2.1-.5.6-.8,1-1.2,1.4-.4.3-.8.6-1.2.8-.4.2-.8.3-1.5.4-.7,0-1.7.2-2.7.2-1.1,0-2.2,0-4.5,0-2.3,0-5.6,0-7.4-.1-1.8,0-2,0-2.1-.1-.1,0-.1,0-.2-.3,0-.2,0-.6,0-.8q0-.2.2-.2c.2,0,.7,0,1.3-.2.5,0,1.2-.2,1.9-.3.7-.1,1.5-.3,2.3-.6.8-.3,1.7-.6,2.4-.9.7-.3,1.2-.5,1.8-.8.6-.3,1.2-.7,1.7-1.1.5-.4,1-.8,1.4-1.2.4-.4.8-.8,1.2-1.2.4-.5.9-1.1,1.4-1.7.5-.6,1-1.2,1.5-1.8.5-.5,1-1,1.8-1.4.7-.4,1.6-.9,2.3-1.1.7-.2,1.2-.3,1.6-.3.4,0,.8,0,1.1,0,.3,0,.6.2.8.4.2.2.2.5,0,1-.2.5-.6,1.3-1,2-.4.6-.7,1.1-1,1.6-.4.5-.7,1-1.1,1.6-.4.5-.7,1-1.1,1.5-.4.5-.8,1-1.3,1.4-.4.5-.9.9-1.3,1.3s-.7.6-1.1.9c-.3.2-.6.5-.9.6-.3.2-.5.3-.6.4-.1,0-.1.2,0,.2.2,0,.6,0,.9,0,.3,0,.6,0,1.1-.2.4-.2,1-.4,1.5-.7.4-.3.7-.5,1-.8.3-.3.7-.7,1.1-1.2.4-.5.7-1,1-1.5.3-.5.6-1.1.9-1.7.3-.6.6-1.2,1-2,.4-.8.8-1.7,1-2.3.3-.7.4-1.1.7-1.7.3-.6.6-1.3.8-1.7.2-.4.2-.5-.3-.5-.5,0-1.4,0-2.1.1-.7.1-1.3.3-1.9.5-.6.2-1.3.5-2,.8-.7.3-1.4.8-1.9,1.1-.5.3-.8.5-1.1.8-.3.3-.6.5-.9.8-.3.3-.6.7-.9,1-.3.3-.5.7-.9,1.1-.3.4-.7.9-1.1,1.4-.5.5-1,1-1.5,1.5-.5.5-1.1.9-1.8,1.3-.6.4-1.4.7-2.1,1.1-.7.3-1.4.6-2.2.9-.8.3-1.7.5-2.4.7-.7.2-1.2.3-1.7.4-.5,0-1.2.2-1.6.2-.5,0-.8,0-.9,0-.2,0-.2,0,0,.5,0,.4.2,1.2.3,1.5q0,.4.9.4c.8,0,2.4.2,3.8.3,1.4,0,2.5.1,3.4.2,1,0,1.7.1,2.8.2,1.1,0,2.4.1,3.4.2,1,0,1.8,0,2.5-.1.7,0,1.2-.2,1.7-.4.5-.2.9-.3,1.4-.7.5-.3,1-.8,1.5-1.5.5-.7,1-1.6,1.4-2.3.4-.7.7-1.3.9-1.7.2-.4.2-.5.2-.6ZM28.2,40.5c0,.3,0,.6,0,.9,0,.4,0,.6,0,.7,0,.1,0,.2-.2.2,0,0-.2,0-.3,0-.1,0-.2,0-.3-.1,0,0-.2-.2-.3-.3,0-.1-.2-.2-.3-.2,0,0-.2,0-.2,0,0,0,0,.2,0,.3,0,.1.1.3.3.4.1.1.3.3.5.4.2.1.5.3.8.3.3,0,.5,0,.8,0,.3-.1.5-.3.7-.4.2-.2.3-.3.4-.4s.1-.2.1-.3c0,0,0-.2,0-.2,0,0-.2,0-.3,0-.1,0-.2.2-.4.3-.1.1-.3.2-.4.2-.1,0-.2,0-.3,0,0,0-.2,0-.2,0,0,0,0-.1,0-.5,0-.3,0-.8,0-1.2.1,0,.2,0,.3,0,.3,0,.3,0,.4,0,0,0,0,0,0-.1,0,0,0,0,0-.1,0,0,0,0-.3,0-.1,0-.3,0-.5,0h0c0-.1,0-.2,0-.3,0,0,0,0,.1-.1,0,0,0,0,0-.1,0-.2-.1-.3-.3-.3s-.3.1-.3.3c0,0,0,.1,0,.1s0,0,.1.1c0,0,0,0,0,.1,0,0,0,.1,0,.2-.2,0-.4,0-.5,0-.3,0-.3,0-.3,0s0,0,0,.1c0,0,0,0,0,.1,0,0,.1,0,.4,0,0,0,.2,0,.3,0ZM35.7,36.5c0,0-.2,0-.3.2-.1.1-.2.2-.4.6-.2.3-.5.9-.8,1.4-.3.6-.5,1.2-.9,2-.3.8-.8,1.8-1.1,2.6-.3.8-.6,1.3-.7,1.6,0,.3,0,.3.2,0,.2-.3.5-.8.8-1.5.3-.6.7-1.3,1-2,.4-.7.7-1.4,1-1.9.3-.6.6-1.1.9-1.5.2-.4.4-.9.5-1.1,0-.3,0-.4,0-.4Z"/>
      <text class="cls-2" transform="translate(40.1 40.7)"><tspan x="0" y="0">Q&amp;A</tspan></text>
    </g>
  </g>
</svg>